# xmcd
# 
# Track frame offsets:
#     150
#     14622
#     27997
#     39382
#     51572
#     64575
#     79260
#     92485
#     103500
#     116445
#     129452
#     143947
#     154760
#     169747
#     183772
#     196335
#     210497
#     223870
#     236222
#     254262
#     268890
#     281227
#     294535
#     307542
# 
# Disc length: 4265
# 
# Revision: 15
# Processed by: cddbd v1.5.2PL0 Copyright (c) Steve Scherf et al.
# Submitted via: fre:ac v1.0.31
# 
DISCID=6010a718
DTITLE=Muddy Waters - The Anthology Disc 2
DYEAR=2001
DGENRE=Blues
TTITLE0=My Eyes (Keep Me In Trouble)
TTITLE1=Mannish Boy
TTITLE2=Sugar Sweet
TTITLE3=Trouble No More
TTITLE4=Forty Days And Forty Nights
TTITLE5=Just To Be With You
TTITLE6=Don't Go No Farther
TTITLE7=Diamonds At Your Feet
TTITLE8=I Love The Life I Live (I Live The Life I Love)
TTITLE9=Got My Mojo Working
TTITLE10=Rock Me
TTITLE11=Look What You've Done
TTITLE12=She's Nineteen Years Old
TTITLE13=Close To You
TTITLE14=Walking Thru The Park
TTITLE15=Take The Bitter With The Sweet
TTITLE16=I Feel So Good (Live At Newport Jazz Festival 1960)
TTITLE17=You Shook Me
TTITLE18=My Home Is In The Delta
TTITLE19=Good Morning Little Schoolgirl
TTITLE20=The Same Thing
TTITLE21=You Can't Lose What You Ain't Never Had
TTITLE22=All Aboard (Fathers and Sons)
TTITLE23=Can't Get No Grindin'
EXTD=YEAR: 2007
EXTT0=\nYEAR: 1955
EXTT1=\nYEAR: 1955
EXTT2=\nYEAR: 1955
EXTT3=\nYEAR: 1955
EXTT4=\nYEAR: 1956
EXTT5=\nYEAR: 1956
EXTT6=\nYEAR: 1956
EXTT7=\nYEAR: 1956
EXTT8=\nYEAR: 1956
EXTT9=\nYEAR: 1956
EXTT10=\nYEAR: 1956
EXTT11=\nYEAR: 1956
EXTT12=\nYEAR: 1958
EXTT13=\nYEAR: 1958
EXTT14=\nYEAR: 1958
EXTT15=\nYEAR: 1959
EXTT16=\nYEAR: 1960
EXTT17=\nYEAR: 1962
EXTT18=\nYEAR: 1963
EXTT19=\nYEAR: 1963
EXTT20=\nYEAR: 1964
EXTT21=\nYEAR: 1964
EXTT22=\nYEAR: 1969
EXTT23=\nYEAR: 1972
PLAYORDER=
